ply
format ascii 1.0
comment Created by Blender 2.74 (sub 0) - www.blender.org, source file: 'scene-with-light.blend'
element vertex 534
property float x
property float y
property float z
property float nx
property float ny
property float nz
property uchar red
property uchar green
property uchar blue
element face 528
property list uchar uint vertex_indices
end_header
-0.289802 0.047394 0.157120 -0.803687 0.437409 0.403435 255 255 255
-0.220709 0.289950 0.031778 -0.803687 0.437409 0.403435 255 255 255
-0.373391 0.217089 -0.193384 -0.803687 0.437409 0.403435 255 255 255
-0.442484 -0.025468 -0.068042 -0.803687 0.437409 0.403435 255 255 255
-0.220709 0.289950 0.031778 0.245328 0.861246 -0.445050 255 255 255
0.005638 0.166760 -0.081844 0.245328 0.861246 -0.445050 255 255 255
-0.147044 0.093899 -0.307006 0.245328 0.861246 -0.445050 255 255 255
-0.373391 0.217089 -0.193384 0.245328 0.861246 -0.445050 255 255 255
0.005638 0.166760 -0.081844 0.803687 -0.437410 -0.403435 255 255 255
-0.063455 -0.075796 0.043498 0.803687 -0.437410 -0.403435 255 255 255
-0.216137 -0.148658 -0.181663 0.803687 -0.437410 -0.403435 255 255 255
-0.147044 0.093899 -0.307006 0.803687 -0.437410 -0.403435 255 255 255
-0.063455 -0.075796 0.043498 -0.245327 -0.861244 0.445054 255 255 255
-0.289802 0.047394 0.157120 -0.245327 -0.861244 0.445054 255 255 255
-0.442484 -0.025468 -0.068042 -0.245327 -0.861244 0.445054 255 255 255
-0.216137 -0.148658 -0.181663 -0.245327 -0.861244 0.445054 255 255 255
-0.442484 -0.025468 -0.068042 -0.542126 -0.258709 -0.799480 255 255 255
-0.373391 0.217089 -0.193384 -0.542126 -0.258709 -0.799480 255 255 255
-0.147044 0.093899 -0.307006 -0.542126 -0.258709 -0.799480 255 255 255
-0.216137 -0.148658 -0.181663 -0.542126 -0.258709 -0.799480 255 255 255
-0.220709 0.289950 0.031778 0.542127 0.258708 0.799480 255 255 255
-0.289802 0.047394 0.157120 0.542127 0.258708 0.799480 255 255 255
-0.063455 -0.075796 0.043498 0.542127 0.258708 0.799480 255 255 255
0.005638 0.166760 -0.081844 0.542127 0.258708 0.799480 255 255 255
0.445605 -0.445605 1.000000 -0.000000 0.000000 -1.000000 255 255 255
0.445605 0.445604 1.000000 -0.000000 0.000000 -1.000000 255 255 255
1.000000 0.999999 1.000000 -0.000000 0.000000 -1.000000 255 255 255
0.999999 -1.000001 1.000000 -0.000000 0.000000 -1.000000 255 255 255
-0.445605 0.445605 1.000000 0.000000 -0.000000 -1.000000 255 255 255
-1.000000 1.000000 1.000000 0.000000 -0.000000 -1.000000 255 255 255
-0.445605 -0.445605 1.000000 0.000000 0.000000 -1.000000 255 255 255
-1.000000 -1.000000 1.000000 0.000000 0.000000 -1.000000 255 255 255
1.000000 1.000000 -1.000000 0.000000 -0.000000 1.000000 255 255 255
-1.000000 1.000000 -1.000000 0.000000 -0.000000 1.000000 255 255 255
-1.000000 -1.000000 -1.000000 0.000000 -0.000000 1.000000 255 255 255
1.000000 -1.000000 -1.000000 0.000000 -0.000000 1.000000 255 255 255
1.000000 1.000000 -1.000000 -1.000000 0.000000 -0.000000 255 255 255
1.000000 -1.000000 -1.000000 -1.000000 0.000000 -0.000000 255 255 255
0.999999 -1.000001 1.000000 -1.000000 0.000000 -0.000000 255 255 255
1.000000 0.999999 1.000000 -1.000000 0.000000 -0.000000 255 255 255
-1.000000 -1.000000 -1.000000 1.000000 0.000000 0.000000 255 255 255
-1.000000 1.000000 -1.000000 1.000000 0.000000 0.000000 255 255 255
-1.000000 1.000000 1.000000 1.000000 0.000000 0.000000 255 255 255
-1.000000 -1.000000 1.000000 1.000000 0.000000 0.000000 255 255 255
1.000000 0.999999 1.000000 -0.000000 -1.000000 -0.000000 255 255 255
-1.000000 1.000000 1.000000 -0.000000 -1.000000 -0.000000 255 255 255
-1.000000 1.000000 -1.000000 -0.000000 -1.000000 -0.000000 255 255 255
1.000000 1.000000 -1.000000 -0.000000 -1.000000 -0.000000 255 255 255
1.000000 -1.000000 -1.000000 0.000000 1.000000 0.000000 255 255 255
-1.000000 -1.000000 -1.000000 0.000000 1.000000 0.000000 255 255 255
-1.000000 -1.000000 1.000000 0.000000 1.000000 0.000000 255 255 255
0.999999 -1.000001 1.000000 0.000000 1.000000 0.000000 255 255 255
0.558221 0.503310 -0.508146 -0.710135 0.000000 0.704031 255 255 255
0.581717 0.503310 -0.488863 -0.559771 0.000000 0.828639 255 255 255
0.583372 0.520115 -0.488863 -0.548997 0.109195 0.828639 255 255 255
0.560328 0.524699 -0.508146 -0.696493 0.138524 0.704031 255 255 255
0.637611 0.503310 -0.769861 -0.200964 0.000000 -0.979583 255 255 255
0.608524 0.503310 -0.761038 -0.387860 0.000000 -0.921690 255 255 255
0.609664 0.514886 -0.761038 -0.380413 0.075655 -0.921690 255 255 255
0.638192 0.509211 -0.769861 -0.197089 0.039186 -0.979583 255 255 255
0.608524 0.503310 -0.474535 -0.387860 0.000000 0.921690 255 255 255
0.637611 0.503310 -0.465711 -0.200964 0.000000 0.979583 255 255 255
0.638192 0.509211 -0.465711 -0.197089 0.039186 0.979583 255 255 255
0.609664 0.514886 -0.474535 -0.380413 0.075655 0.921690 255 255 255
0.581717 0.503310 -0.746709 -0.559771 0.000000 -0.828608 255 255 255
0.558221 0.503310 -0.727426 -0.710135 0.000000 -0.704062 255 255 255
0.560328 0.524699 -0.727426 -0.696463 0.138524 -0.704062 255 255 255
0.583373 0.520115 -0.746709 -0.548997 0.109195 -0.828639 255 255 255
0.538938 0.503310 -0.703930 -0.833308 0.000000 -0.552751 255 255 255
0.524609 0.503310 -0.677123 -0.924741 0.000000 -0.380505 255 255 255
0.527362 0.531257 -0.677123 -0.906980 0.180395 -0.380535 255 255 255
0.541415 0.528461 -0.703930 -0.817316 0.162572 -0.552751 255 255 255
0.515786 0.503310 -0.648036 -0.980987 0.000000 -0.193915 255 255 255
0.512806 0.503310 -0.617786 -1.000000 0.000000 0.000000 255 255 255
0.515786 0.533559 -0.617786 -0.980773 0.195074 0.000000 255 255 255
0.518708 0.532978 -0.648036 -0.962157 0.191382 -0.193915 255 255 255
0.515786 0.503310 -0.587537 -0.980987 0.000000 0.193915 255 255 255
0.524609 0.503310 -0.558450 -0.924741 0.000000 0.380505 255 255 255
0.527362 0.531257 -0.558450 -0.906980 0.180395 0.380535 255 255 255
0.518708 0.532978 -0.587537 -0.962157 0.191382 0.193915 255 255 255
0.538938 0.503310 -0.531643 -0.833338 0.000000 0.552751 255 255 255
0.541415 0.528461 -0.531643 -0.817316 0.162572 0.552751 255 255 255
0.527362 0.561506 -0.648036 -0.906339 0.375408 -0.193915 255 255 255
0.535514 0.558130 -0.677123 -0.854366 0.353893 -0.380535 255 255 255
0.527362 0.561506 -0.587537 -0.906339 0.375408 0.193915 255 255 255
0.524609 0.562646 -0.617786 -0.923856 0.382672 0.000000 255 255 255
0.548752 0.552646 -0.531643 -0.769890 0.318888 0.552751 255 255 255
0.535514 0.558130 -0.558450 -0.854366 0.353893 0.380535 255 255 255
0.588275 0.536275 -0.488863 -0.517136 0.214209 0.828639 255 255 255
0.566567 0.545267 -0.508146 -0.656087 0.271737 0.704031 255 255 255
0.613041 0.526017 -0.761038 -0.358348 0.148442 -0.921690 255 255 255
0.639914 0.514886 -0.769861 -0.185644 0.076907 -0.979583 255 255 255
0.639914 0.514886 -0.465711 -0.185644 0.076907 0.979583 255 255 255
0.613041 0.526017 -0.474535 -0.358348 0.148442 0.921690 255 255 255
0.566567 0.545267 -0.727426 -0.656056 0.271737 -0.704062 255 255 255
0.588275 0.536275 -0.746709 -0.517167 0.214209 -0.828639 255 255 255
0.548752 0.552646 -0.703930 -0.769890 0.318888 -0.552751 255 255 255
0.541415 0.587798 -0.648036 -0.815668 0.545000 -0.193915 255 255 255
0.548752 0.582896 -0.677123 -0.768914 0.513749 -0.380535 255 255 255
0.541415 0.587798 -0.587537 -0.815668 0.545000 0.193915 255 255 255
0.538938 0.589453 -0.617786 -0.831446 0.555559 0.000000 255 255 255
0.560665 0.574935 -0.531643 -0.692892 0.462966 0.552751 255 255 255
0.548752 0.582896 -0.558450 -0.768883 0.513749 0.380535 255 255 255
0.596235 0.551168 -0.488863 -0.465407 0.310984 0.828639 255 255 255
0.576698 0.564222 -0.508146 -0.590442 0.394513 0.704031 255 255 255
0.618524 0.536275 -0.761038 -0.322520 0.215491 -0.921690 255 255 255
0.642709 0.520115 -0.769861 -0.167089 0.111637 -0.979583 255 255 255
0.642709 0.520115 -0.465711 -0.167089 0.111637 0.979583 255 255 255
0.618524 0.536275 -0.474535 -0.322489 0.215491 0.921690 255 255 255
0.576698 0.564222 -0.727426 -0.590442 0.394513 -0.704062 255 255 255
0.596235 0.551168 -0.746709 -0.465438 0.310984 -0.828639 255 255 255
0.560665 0.574935 -0.703930 -0.692892 0.462966 -0.552751 255 255 255
0.560328 0.610843 -0.648036 -0.693655 0.693655 -0.193915 255 255 255
0.566567 0.604604 -0.677123 -0.653890 0.653890 -0.380505 255 255 255
0.560328 0.610843 -0.587537 -0.693655 0.693655 0.193915 255 255 255
0.558221 0.612950 -0.617786 -0.707083 0.707083 0.000000 255 255 255
0.576699 0.594472 -0.531643 -0.589251 0.589251 0.552751 255 255 255
0.566567 0.604604 -0.558450 -0.653890 0.653890 0.380535 255 255 255
0.606948 0.564222 -0.488863 -0.395795 0.395795 0.828639 255 255 255
0.590334 0.580837 -0.508146 -0.502121 0.502121 0.704031 255 255 255
0.625903 0.545267 -0.761038 -0.274270 0.274270 -0.921690 255 255 255
0.646471 0.524699 -0.769861 -0.142094 0.142094 -0.979583 255 255 255
0.646471 0.524699 -0.465711 -0.142094 0.142094 0.979583 255 255 255
0.625903 0.545267 -0.474535 -0.274270 0.274270 0.921690 255 255 255
0.590334 0.580837 -0.727426 -0.502121 0.502121 -0.704062 255 255 255
0.606948 0.564222 -0.746709 -0.395795 0.395795 -0.828639 255 255 255
0.576699 0.594472 -0.703930 -0.589251 0.589251 -0.552751 255 255 255
0.583373 0.629755 -0.648036 -0.545000 0.815668 -0.193915 255 255 255
0.588275 0.622419 -0.677123 -0.513749 0.768883 -0.380505 255 255 255
0.583373 0.629755 -0.587537 -0.545000 0.815668 0.193915 255 255 255
0.581717 0.632233 -0.617786 -0.555559 0.831446 0.000000 255 255 255
0.596235 0.610505 -0.531643 -0.462966 0.692892 0.552751 255 255 255
0.588275 0.622419 -0.558450 -0.513749 0.768883 0.380505 255 255 255
0.620002 0.574935 -0.488863 -0.310984 0.465407 0.828639 255 255 255
0.606948 0.594472 -0.508146 -0.394513 0.590442 0.704031 255 255 255
0.634895 0.552646 -0.761038 -0.215491 0.322489 -0.921690 255 255 255
0.651055 0.528461 -0.769861 -0.111637 0.167089 -0.979583 255 255 255
0.651055 0.528461 -0.465711 -0.111637 0.167089 0.979583 255 255 255
0.634895 0.552646 -0.474535 -0.215491 0.322489 0.921690 255 255 255
0.606948 0.594472 -0.727426 -0.394513 0.590442 -0.704062 255 255 255
0.620002 0.574935 -0.746709 -0.310984 0.465407 -0.828639 255 255 255
0.596235 0.610505 -0.703930 -0.462966 0.692892 -0.552751 255 255 255
0.609664 0.643809 -0.648036 -0.375408 0.906308 -0.193915 255 255 255
0.613041 0.635657 -0.677123 -0.353893 0.854366 -0.380535 255 255 255
0.609664 0.643809 -0.587537 -0.375408 0.906308 0.193915 255 255 255
0.608524 0.646561 -0.617786 -0.382672 0.923856 0.000000 255 255 255
0.618524 0.622419 -0.531643 -0.318888 0.769890 0.552751 255 255 255
0.613041 0.635657 -0.558450 -0.353893 0.854366 0.380535 255 255 255
0.634895 0.582896 -0.488863 -0.214209 0.517136 0.828639 255 255 255
0.625903 0.604604 -0.508146 -0.271737 0.656087 0.704031 255 255 255
0.645154 0.558130 -0.761038 -0.148412 0.358348 -0.921690 255 255 255
0.656285 0.531257 -0.769861 -0.076907 0.185675 -0.979583 255 255 255
0.656285 0.531257 -0.465711 -0.076907 0.185675 0.979583 255 255 255
0.645154 0.558130 -0.474535 -0.148412 0.358348 0.921690 255 255 255
0.625903 0.604604 -0.727426 -0.271737 0.656056 -0.704031 255 255 255
0.634895 0.582896 -0.746709 -0.214209 0.517136 -0.828639 255 255 255
0.618524 0.622419 -0.703930 -0.318888 0.769890 -0.552751 255 255 255
0.638193 0.652463 -0.648036 -0.191382 0.962157 -0.193915 255 255 255
0.639914 0.643809 -0.677123 -0.180395 0.906980 -0.380535 255 255 255
0.638193 0.652463 -0.587537 -0.191382 0.962157 0.193915 255 255 255
0.637611 0.655385 -0.617786 -0.195074 0.980773 0.000000 255 255 255
0.642709 0.629755 -0.531643 -0.162572 0.817316 0.552751 255 255 255
0.639914 0.643809 -0.558450 -0.180395 0.906980 0.380535 255 255 255
0.651055 0.587798 -0.488863 -0.109195 0.548997 0.828639 255 255 255
0.646471 0.610843 -0.508146 -0.138524 0.696493 0.704031 255 255 255
0.656285 0.561506 -0.761038 -0.075655 0.380413 -0.921690 255 255 255
0.661959 0.532978 -0.769861 -0.039186 0.197089 -0.979583 255 255 255
0.661959 0.532978 -0.465711 -0.039186 0.197089 0.979583 255 255 255
0.656285 0.561506 -0.474535 -0.075655 0.380413 0.921690 255 255 255
0.646471 0.610843 -0.727426 -0.138524 0.696493 -0.704031 255 255 255
0.651055 0.587798 -0.746709 -0.109195 0.548997 -0.828639 255 255 255
0.642709 0.629755 -0.703930 -0.162572 0.817316 -0.552751 255 255 255
0.667861 0.655385 -0.648036 0.000000 0.980987 -0.193915 255 255 255
0.667861 0.646561 -0.677123 0.000000 0.924741 -0.380535 255 255 255
0.667861 0.655385 -0.587537 0.000000 0.980987 0.193915 255 255 255
0.667861 0.658364 -0.617786 0.000000 0.999969 0.000000 255 255 255
0.667861 0.632233 -0.531643 0.000000 0.833338 0.552751 255 255 255
0.667861 0.646561 -0.558450 0.000000 0.924741 0.380535 255 255 255
0.667861 0.589453 -0.488863 0.000000 0.559740 0.828639 255 255 255
0.667861 0.612950 -0.508146 0.000000 0.710135 0.704031 255 255 255
0.667861 0.562646 -0.761038 0.000000 0.387860 -0.921690 255 255 255
0.667861 0.533559 -0.769861 0.000000 0.200964 -0.979583 255 255 255
0.667861 0.533559 -0.465711 0.000000 0.200964 0.979583 255 255 255
0.667861 0.562646 -0.474535 0.000000 0.387860 0.921690 255 255 255
0.667861 0.612950 -0.727426 0.000000 0.710135 -0.704062 255 255 255
0.667861 0.589453 -0.746709 0.000000 0.559771 -0.828639 255 255 255
0.667861 0.632233 -0.703930 0.000000 0.833338 -0.552751 255 255 255
0.697529 0.652463 -0.648036 0.191382 0.962157 -0.193915 255 255 255
0.695808 0.643809 -0.677123 0.180395 0.906980 -0.380535 255 255 255
0.697529 0.652463 -0.587537 0.191382 0.962157 0.193915 255 255 255
0.698111 0.655385 -0.617786 0.195074 0.980773 0.000000 255 255 255
0.693013 0.629755 -0.531643 0.162572 0.817316 0.552751 255 255 255
0.695808 0.643809 -0.558450 0.180395 0.906980 0.380535 255 255 255
0.684667 0.587798 -0.488863 0.109195 0.548997 0.828639 255 255 255
0.689251 0.610843 -0.508146 0.138524 0.696493 0.704031 255 255 255
0.679437 0.561506 -0.761038 0.075655 0.380413 -0.921690 255 255 255
0.673762 0.532978 -0.769861 0.039186 0.197089 -0.979583 255 255 255
0.673762 0.532978 -0.465711 0.039186 0.197089 0.979583 255 255 255
0.679437 0.561506 -0.474535 0.075655 0.380413 0.921690 255 255 255
0.689251 0.610843 -0.727426 0.138524 0.696463 -0.704031 255 255 255
0.684667 0.587798 -0.746709 0.109195 0.548997 -0.828639 255 255 255
0.693013 0.629755 -0.703930 0.162572 0.817316 -0.552751 255 255 255
0.726058 0.643809 -0.648036 0.375408 0.906308 -0.193915 255 255 255
0.722681 0.635657 -0.677123 0.353893 0.854366 -0.380535 255 255 255
0.726058 0.643809 -0.587537 0.375408 0.906308 0.193915 255 255 255
0.727198 0.646561 -0.617786 0.382672 0.923856 0.000000 255 255 255
0.717198 0.622419 -0.531643 0.318888 0.769890 0.552751 255 255 255
0.722681 0.635657 -0.558450 0.353893 0.854366 0.380535 255 255 255
0.700827 0.582896 -0.488863 0.214209 0.517136 0.828639 255 255 255
0.709818 0.604604 -0.508146 0.271737 0.656087 0.704031 255 255 255
0.690568 0.558130 -0.761038 0.148412 0.358348 -0.921690 255 255 255
0.679437 0.531257 -0.769861 0.076907 0.185675 -0.979583 255 255 255
0.679437 0.531257 -0.465711 0.076907 0.185675 0.979583 255 255 255
0.690568 0.558130 -0.474535 0.148412 0.358348 0.921690 255 255 255
0.709818 0.604604 -0.727426 0.271737 0.656056 -0.704062 255 255 255
0.700827 0.582896 -0.746709 0.214209 0.517167 -0.828639 255 255 255
0.717198 0.622419 -0.703930 0.318888 0.769890 -0.552751 255 255 255
0.752349 0.629755 -0.648036 0.545000 0.815668 -0.193915 255 255 255
0.747447 0.622419 -0.677123 0.513749 0.768883 -0.380505 255 255 255
0.752349 0.629755 -0.587537 0.545000 0.815668 0.193915 255 255 255
0.754005 0.632233 -0.617786 0.555559 0.831446 0.000000 255 255 255
0.739487 0.610505 -0.531643 0.462966 0.692892 0.552751 255 255 255
0.747447 0.622419 -0.558450 0.513749 0.768883 0.380535 255 255 255
0.715720 0.574935 -0.488863 0.310984 0.465407 0.828639 255 255 255
0.728774 0.594472 -0.508146 0.394513 0.590442 0.704031 255 255 255
0.700827 0.552646 -0.761038 0.215491 0.322489 -0.921690 255 255 255
0.684667 0.528461 -0.769861 0.111637 0.167089 -0.979583 255 255 255
0.684667 0.528461 -0.465711 0.111637 0.167089 0.979583 255 255 255
0.700827 0.552646 -0.474535 0.215491 0.322489 0.921690 255 255 255
0.728774 0.594472 -0.727426 0.394513 0.590442 -0.704062 255 255 255
0.715720 0.574935 -0.746709 0.310984 0.465407 -0.828639 255 255 255
0.739487 0.610505 -0.703930 0.462966 0.692892 -0.552751 255 255 255
0.775394 0.610843 -0.648036 0.693655 0.693655 -0.193915 255 255 255
0.769155 0.604604 -0.677123 0.653890 0.653890 -0.380505 255 255 255
0.775394 0.610843 -0.587537 0.693655 0.693655 0.193915 255 255 255
0.777501 0.612950 -0.617786 0.707083 0.707083 0.000000 255 255 255
0.759023 0.594472 -0.531643 0.589251 0.589251 0.552751 255 255 255
0.769155 0.604604 -0.558450 0.653890 0.653890 0.380535 255 255 255
0.728774 0.564222 -0.488863 0.395795 0.395795 0.828639 255 255 255
0.745388 0.580837 -0.508146 0.502152 0.502121 0.704031 255 255 255
0.709818 0.545267 -0.761038 0.274270 0.274270 -0.921690 255 255 255
0.689251 0.524699 -0.769861 0.142094 0.142094 -0.979583 255 255 255
0.689251 0.524699 -0.465711 0.142094 0.142094 0.979583 255 255 255
0.709818 0.545267 -0.474535 0.274270 0.274270 0.921690 255 255 255
0.745388 0.580837 -0.727426 0.502121 0.502121 -0.704062 255 255 255
0.728774 0.564222 -0.746709 0.395825 0.395795 -0.828639 255 255 255
0.759023 0.594472 -0.703930 0.589251 0.589251 -0.552751 255 255 255
0.794307 0.587798 -0.648036 0.815668 0.545000 -0.193915 255 255 255
0.786970 0.582896 -0.677123 0.768914 0.513749 -0.380535 255 255 255
0.794307 0.587798 -0.587537 0.815668 0.545000 0.193915 255 255 255
0.796784 0.589453 -0.617786 0.831446 0.555559 0.000000 255 255 255
0.775057 0.574935 -0.531643 0.692892 0.462966 0.552751 255 255 255
0.786970 0.582896 -0.558450 0.768914 0.513749 0.380535 255 255 255
0.739487 0.551168 -0.488863 0.465407 0.310984 0.828639 255 255 255
0.759023 0.564222 -0.508146 0.590442 0.394513 0.704031 255 255 255
0.717198 0.536275 -0.761038 0.322489 0.215491 -0.921690 255 255 255
0.693013 0.520115 -0.769861 0.167089 0.111637 -0.979583 255 255 255
0.693013 0.520115 -0.465711 0.167089 0.111637 0.979583 255 255 255
0.717198 0.536275 -0.474535 0.322489 0.215491 0.921690 255 255 255
0.759023 0.564222 -0.727426 0.590442 0.394513 -0.704062 255 255 255
0.739487 0.551168 -0.746709 0.465438 0.310984 -0.828608 255 255 255
0.775057 0.574935 -0.703930 0.692892 0.462966 -0.552751 255 255 255
0.808360 0.561506 -0.648036 0.906339 0.375408 -0.193915 255 255 255
0.800208 0.558130 -0.677123 0.854366 0.353893 -0.380535 255 255 255
0.808360 0.561506 -0.587537 0.906339 0.375408 0.193915 255 255 255
0.811113 0.562646 -0.617786 0.923856 0.382672 0.000000 255 255 255
0.786970 0.552646 -0.531643 0.769890 0.318888 0.552751 255 255 255
0.800208 0.558130 -0.558450 0.854366 0.353893 0.380535 255 255 255
0.747447 0.536275 -0.488863 0.517136 0.214209 0.828639 255 255 255
0.769155 0.545267 -0.508146 0.656087 0.271737 0.704031 255 255 255
0.722681 0.526017 -0.761038 0.358348 0.148412 -0.921690 255 255 255
0.695808 0.514886 -0.769861 0.185675 0.076907 -0.979583 255 255 255
0.695808 0.514886 -0.465711 0.185675 0.076907 0.979583 255 255 255
0.722681 0.526017 -0.474535 0.358348 0.148412 0.921690 255 255 255
0.769155 0.545267 -0.727426 0.656056 0.271737 -0.704062 255 255 255
0.747447 0.536275 -0.746709 0.517167 0.214209 -0.828639 255 255 255
0.786970 0.552646 -0.703930 0.769890 0.318888 -0.552751 255 255 255
0.817014 0.532978 -0.648036 0.962157 0.191382 -0.193915 255 255 255
0.808360 0.531257 -0.677123 0.906980 0.180395 -0.380535 255 255 255
0.817014 0.532978 -0.587537 0.962157 0.191382 0.193915 255 255 255
0.819936 0.533559 -0.617786 0.980773 0.195074 0.000000 255 255 255
0.794307 0.528461 -0.531643 0.817316 0.162572 0.552751 255 255 255
0.808360 0.531257 -0.558450 0.906980 0.180395 0.380535 255 255 255
0.752349 0.520115 -0.488863 0.548997 0.109195 0.828639 255 255 255
0.775394 0.524699 -0.508146 0.696493 0.138524 0.704031 255 255 255
0.726058 0.514886 -0.761038 0.380413 0.075655 -0.921690 255 255 255
0.697529 0.509211 -0.769861 0.197089 0.039186 -0.979583 255 255 255
0.697529 0.509211 -0.465711 0.197089 0.039186 0.979583 255 255 255
0.726058 0.514886 -0.474535 0.380413 0.075655 0.921690 255 255 255
0.775394 0.524699 -0.727426 0.696463 0.138524 -0.704062 255 255 255
0.752349 0.520115 -0.746709 0.548997 0.109195 -0.828639 255 255 255
0.794307 0.528461 -0.703930 0.817316 0.162572 -0.552751 255 255 255
0.819936 0.503310 -0.648036 0.980987 0.000000 -0.193915 255 255 255
0.811113 0.503310 -0.677123 0.924741 0.000000 -0.380505 255 255 255
0.819936 0.503310 -0.587537 0.980987 0.000000 0.193915 255 255 255
0.822915 0.503310 -0.617786 1.000000 0.000000 0.000000 255 255 255
0.796784 0.503310 -0.531643 0.833338 0.000000 0.552751 255 255 255
0.811113 0.503310 -0.558450 0.924741 0.000000 0.380505 255 255 255
0.754005 0.503310 -0.488863 0.559771 0.000000 0.828639 255 255 255
0.777501 0.503310 -0.508146 0.710135 0.000000 0.704031 255 255 255
0.727198 0.503310 -0.761038 0.387860 0.000000 -0.921690 255 255 255
0.698111 0.503310 -0.769861 0.200964 0.000000 -0.979583 255 255 255
0.698111 0.503310 -0.465711 0.200964 0.000000 0.979583 255 255 255
0.727198 0.503310 -0.474535 0.387860 0.000000 0.921690 255 255 255
0.777501 0.503310 -0.727426 0.710135 0.000000 -0.704062 255 255 255
0.754005 0.503310 -0.746709 0.559771 0.000000 -0.828608 255 255 255
0.796784 0.503310 -0.703930 0.833308 0.000000 -0.552751 255 255 255
0.817014 0.473641 -0.648036 0.962157 -0.191382 -0.193915 255 255 255
0.808360 0.475363 -0.677123 0.906980 -0.180395 -0.380535 255 255 255
0.817014 0.473641 -0.587537 0.962157 -0.191382 0.193915 255 255 255
0.819936 0.473060 -0.617786 0.980773 -0.195074 0.000000 255 255 255
0.794307 0.478158 -0.531643 0.817316 -0.162572 0.552751 255 255 255
0.808360 0.475363 -0.558450 0.906980 -0.180395 0.380535 255 255 255
0.752349 0.486504 -0.488863 0.548997 -0.109195 0.828639 255 255 255
0.775394 0.481920 -0.508146 0.696493 -0.138524 0.704031 255 255 255
0.726058 0.491734 -0.761038 0.380413 -0.075655 -0.921690 255 255 255
0.697529 0.497408 -0.769861 0.197089 -0.039186 -0.979583 255 255 255
0.697529 0.497408 -0.465711 0.197089 -0.039186 0.979583 255 255 255
0.726058 0.491734 -0.474535 0.380413 -0.075655 0.921690 255 255 255
0.775394 0.481920 -0.727426 0.696463 -0.138524 -0.704062 255 255 255
0.752349 0.486504 -0.746709 0.548997 -0.109195 -0.828639 255 255 255
0.794307 0.478158 -0.703930 0.817316 -0.162572 -0.552751 255 255 255
0.808360 0.445113 -0.648036 0.906339 -0.375408 -0.193915 255 255 255
0.800208 0.448490 -0.677123 0.854366 -0.353893 -0.380535 255 255 255
0.808360 0.445113 -0.587537 0.906339 -0.375408 0.193915 255 255 255
0.811113 0.443973 -0.617786 0.923856 -0.382672 0.000000 255 255 255
0.786970 0.453973 -0.531643 0.769890 -0.318888 0.552751 255 255 255
0.800208 0.448490 -0.558450 0.854366 -0.353893 0.380535 255 255 255
0.747447 0.470344 -0.488863 0.517136 -0.214209 0.828639 255 255 255
0.769155 0.461352 -0.508146 0.656087 -0.271737 0.704031 255 255 255
0.722681 0.480602 -0.761038 0.358348 -0.148412 -0.921690 255 255 255
0.695808 0.491734 -0.769861 0.185644 -0.076876 -0.979583 255 255 255
0.695808 0.491734 -0.465711 0.185644 -0.076876 0.979583 255 255 255
0.722681 0.480602 -0.474535 0.358348 -0.148412 0.921690 255 255 255
0.769155 0.461352 -0.727426 0.656056 -0.271737 -0.704031 255 255 255
0.747447 0.470344 -0.746709 0.517167 -0.214209 -0.828639 255 255 255
0.786970 0.453973 -0.703930 0.769890 -0.318888 -0.552751 255 255 255
0.794307 0.418821 -0.648036 0.815668 -0.545000 -0.193915 255 255 255
0.786970 0.423723 -0.677123 0.768914 -0.513749 -0.380535 255 255 255
0.794307 0.418821 -0.587537 0.815668 -0.545000 0.193915 255 255 255
0.796784 0.417166 -0.617786 0.831446 -0.555559 0.000000 255 255 255
0.775056 0.431684 -0.531643 0.692892 -0.462966 0.552751 255 255 255
0.786970 0.423723 -0.558450 0.768914 -0.513749 0.380535 255 255 255
0.739487 0.455451 -0.488863 0.465407 -0.310984 0.828639 255 255 255
0.759023 0.442397 -0.508146 0.590442 -0.394513 0.704031 255 255 255
0.717198 0.470344 -0.761038 0.322489 -0.215491 -0.921690 255 255 255
0.693013 0.486504 -0.769861 0.167089 -0.111637 -0.979583 255 255 255
0.693013 0.486504 -0.465711 0.167089 -0.111637 0.979583 255 255 255
0.717198 0.470344 -0.474535 0.322489 -0.215491 0.921690 255 255 255
0.759023 0.442397 -0.727426 0.590442 -0.394513 -0.704031 255 255 255
0.739487 0.455451 -0.746709 0.465438 -0.310984 -0.828639 255 255 255
0.775056 0.431684 -0.703930 0.692892 -0.462966 -0.552751 255 255 255
0.775394 0.395776 -0.648036 0.693655 -0.693655 -0.193915 255 255 255
0.769155 0.402015 -0.677123 0.653890 -0.653890 -0.380535 255 255 255
0.775394 0.395776 -0.587537 0.693655 -0.693655 0.193915 255 255 255
0.777501 0.393670 -0.617786 0.707083 -0.707083 0.000000 255 255 255
0.759023 0.412147 -0.531643 0.589251 -0.589251 0.552751 255 255 255
0.769155 0.402015 -0.558450 0.653890 -0.653890 0.380535 255 255 255
0.728774 0.442397 -0.488863 0.395795 -0.395795 0.828639 255 255 255
0.745388 0.425782 -0.508146 0.502152 -0.502121 0.704031 255 255 255
0.709818 0.461352 -0.761038 0.274270 -0.274270 -0.921690 255 255 255
0.689251 0.481920 -0.769861 0.142094 -0.142094 -0.979583 255 255 255
0.689251 0.481920 -0.465711 0.142094 -0.142094 0.979583 255 255 255
0.709818 0.461352 -0.474535 0.274270 -0.274270 0.921690 255 255 255
0.745388 0.425782 -0.727426 0.502121 -0.502121 -0.704031 255 255 255
0.728774 0.442397 -0.746709 0.395825 -0.395795 -0.828639 255 255 255
0.759023 0.412147 -0.703930 0.589251 -0.589251 -0.552751 255 255 255
0.752349 0.376864 -0.648036 0.545000 -0.815668 -0.193915 255 255 255
0.747447 0.384200 -0.677123 0.513749 -0.768914 -0.380505 255 255 255
0.752349 0.376864 -0.587537 0.545000 -0.815668 0.193915 255 255 255
0.754005 0.374386 -0.617786 0.555559 -0.831446 0.000000 255 255 255
0.739487 0.396114 -0.531643 0.462966 -0.692892 0.552751 255 255 255
0.747447 0.384200 -0.558450 0.513749 -0.768914 0.380505 255 255 255
0.715720 0.431684 -0.488863 0.310984 -0.465407 0.828639 255 255 255
0.728774 0.412147 -0.508146 0.394513 -0.590442 0.704031 255 255 255
0.700827 0.453973 -0.761038 0.215491 -0.322489 -0.921690 255 255 255
0.684667 0.478158 -0.769861 0.111637 -0.167089 -0.979583 255 255 255
0.684667 0.478158 -0.465711 0.111637 -0.167089 0.979583 255 255 255
0.700827 0.453973 -0.474535 0.215491 -0.322489 0.921690 255 255 255
0.728774 0.412147 -0.727426 0.394513 -0.590442 -0.704062 255 255 255
0.715720 0.431684 -0.746709 0.310984 -0.465407 -0.828639 255 255 255
0.739487 0.396114 -0.703930 0.462966 -0.692892 -0.552751 255 255 255
0.726058 0.362811 -0.648036 0.375408 -0.906339 -0.193915 255 255 255
0.722681 0.370962 -0.677123 0.353862 -0.854366 -0.380505 255 255 255
0.726058 0.362811 -0.587537 0.375408 -0.906339 0.193915 255 255 255
0.727198 0.360058 -0.617786 0.382672 -0.923856 0.000000 255 255 255
0.717198 0.384200 -0.531643 0.318888 -0.769890 0.552751 255 255 255
0.722681 0.370962 -0.558450 0.353862 -0.854366 0.380505 255 255 255
0.700827 0.423723 -0.488863 0.214209 -0.517136 0.828639 255 255 255
0.709818 0.402015 -0.508146 0.271737 -0.656087 0.704031 255 255 255
0.690568 0.448490 -0.761038 0.148412 -0.358348 -0.921690 255 255 255
0.679437 0.475363 -0.769861 0.076907 -0.185644 -0.979583 255 255 255
0.679437 0.475363 -0.465711 0.076907 -0.185644 0.979583 255 255 255
0.690568 0.448490 -0.474535 0.148412 -0.358348 0.921690 255 255 255
0.709818 0.402015 -0.727426 0.271737 -0.656056 -0.704062 255 255 255
0.700827 0.423723 -0.746709 0.214209 -0.517136 -0.828639 255 255 255
0.717198 0.384200 -0.703930 0.318888 -0.769890 -0.552751 255 255 255
0.697529 0.354157 -0.648036 0.191382 -0.962157 -0.193915 255 255 255
0.695808 0.362811 -0.677123 0.180395 -0.906980 -0.380535 255 255 255
0.697529 0.354157 -0.587537 0.191382 -0.962157 0.193915 255 255 255
0.698111 0.351234 -0.617786 0.195074 -0.980773 0.000000 255 255 255
0.693013 0.376864 -0.531643 0.162542 -0.817316 0.552751 255 255 255
0.695808 0.362811 -0.558450 0.180395 -0.906980 0.380535 255 255 255
0.684667 0.418821 -0.488863 0.109195 -0.548997 0.828639 255 255 255
0.689251 0.395776 -0.508146 0.138524 -0.696493 0.704031 255 255 255
0.679437 0.445113 -0.761038 0.075655 -0.380413 -0.921690 255 255 255
0.673762 0.473641 -0.769861 0.039186 -0.197089 -0.979583 255 255 255
0.673762 0.473641 -0.465711 0.039186 -0.197089 0.979583 255 255 255
0.679437 0.445113 -0.474535 0.075655 -0.380413 0.921690 255 255 255
0.689251 0.395776 -0.727426 0.138524 -0.696493 -0.704031 255 255 255
0.684667 0.418821 -0.746709 0.109195 -0.548997 -0.828639 255 255 255
0.693013 0.376864 -0.703930 0.162542 -0.817316 -0.552751 255 255 255
0.667861 0.351234 -0.648036 0.000000 -0.980987 -0.193915 255 255 255
0.667861 0.360058 -0.677123 0.000000 -0.924741 -0.380535 255 255 255
0.667861 0.351234 -0.587537 0.000000 -0.980987 0.193915 255 255 255
0.667861 0.348255 -0.617786 0.000000 -0.999969 0.000000 255 255 255
0.667861 0.374387 -0.531643 0.000000 -0.833338 0.552751 255 255 255
0.667861 0.360058 -0.558450 0.000000 -0.924741 0.380535 255 255 255
0.667861 0.417166 -0.488863 0.000000 -0.559740 0.828639 255 255 255
0.667861 0.393670 -0.508146 0.000000 -0.710135 0.704031 255 255 255
0.667861 0.443973 -0.761038 0.000000 -0.387860 -0.921690 255 255 255
0.667861 0.473060 -0.769861 0.000000 -0.200964 -0.979583 255 255 255
0.667861 0.473060 -0.465711 0.000000 -0.200964 0.979583 255 255 255
0.667861 0.443973 -0.474535 0.000000 -0.387860 0.921690 255 255 255
0.667861 0.393670 -0.727426 0.000000 -0.710135 -0.704031 255 255 255
0.667861 0.417166 -0.746709 0.000000 -0.559771 -0.828639 255 255 255
0.667861 0.374387 -0.703930 0.000000 -0.833308 -0.552751 255 255 255
0.638192 0.354157 -0.648036 -0.191382 -0.962157 -0.193915 255 255 255
0.639914 0.362810 -0.677123 -0.180395 -0.906980 -0.380535 255 255 255
0.638192 0.354157 -0.587537 -0.191382 -0.962157 0.193915 255 255 255
0.637611 0.351234 -0.617786 -0.195074 -0.980773 0.000000 255 255 255
0.642709 0.376864 -0.531643 -0.162542 -0.817316 0.552751 255 255 255
0.639914 0.362810 -0.558450 -0.180395 -0.906980 0.380535 255 255 255
0.651055 0.418821 -0.488863 -0.109195 -0.548997 0.828639 255 255 255
0.646471 0.395776 -0.508146 -0.138524 -0.696493 0.704031 255 255 255
0.656285 0.445113 -0.761038 -0.075655 -0.380413 -0.921690 255 255 255
0.661959 0.473641 -0.769861 -0.039186 -0.197089 -0.979583 255 255 255
0.661959 0.473641 -0.465711 -0.039186 -0.197089 0.979583 255 255 255
0.656285 0.445113 -0.474535 -0.075655 -0.380413 0.921690 255 255 255
0.646471 0.395776 -0.727426 -0.138524 -0.696493 -0.704031 255 255 255
0.651055 0.418821 -0.746709 -0.109195 -0.548997 -0.828639 255 255 255
0.642709 0.376864 -0.703930 -0.162542 -0.817316 -0.552751 255 255 255
0.609664 0.362811 -0.648036 -0.375408 -0.906308 -0.193915 255 255 255
0.613041 0.370962 -0.677123 -0.353893 -0.854366 -0.380505 255 255 255
0.609664 0.362811 -0.587537 -0.375408 -0.906308 0.193915 255 255 255
0.608524 0.360058 -0.617786 -0.382672 -0.923856 0.000000 255 255 255
0.618524 0.384200 -0.531643 -0.318888 -0.769890 0.552751 255 255 255
0.613041 0.370962 -0.558450 -0.353893 -0.854366 0.380505 255 255 255
0.634895 0.423723 -0.488863 -0.214209 -0.517136 0.828639 255 255 255
0.625903 0.402015 -0.508146 -0.271737 -0.656087 0.704031 255 255 255
0.645154 0.448490 -0.761038 -0.148412 -0.358348 -0.921690 255 255 255
0.656285 0.475363 -0.769861 -0.076907 -0.185644 -0.979583 255 255 255
0.656285 0.475363 -0.465711 -0.076907 -0.185644 0.979583 255 255 255
0.645154 0.448490 -0.474535 -0.148412 -0.358348 0.921690 255 255 255
0.625903 0.402015 -0.727426 -0.271737 -0.656056 -0.704031 255 255 255
0.634895 0.423723 -0.746709 -0.214209 -0.517136 -0.828639 255 255 255
0.618524 0.384200 -0.703930 -0.318888 -0.769890 -0.552751 255 255 255
0.583373 0.376864 -0.648036 -0.545000 -0.815668 -0.193915 255 255 255
0.588275 0.384200 -0.677123 -0.513749 -0.768914 -0.380505 255 255 255
0.583373 0.376864 -0.587537 -0.545000 -0.815668 0.193915 255 255 255
0.581717 0.374387 -0.617786 -0.555559 -0.831446 0.000000 255 255 255
0.596235 0.396114 -0.531643 -0.462966 -0.692892 0.552751 255 255 255
0.588275 0.384200 -0.558450 -0.513749 -0.768914 0.380505 255 255 255
0.620002 0.431684 -0.488863 -0.310984 -0.465407 0.828639 255 255 255
0.606948 0.412147 -0.508146 -0.394513 -0.590442 0.704031 255 255 255
0.634895 0.453973 -0.761038 -0.215491 -0.322489 -0.921690 255 255 255
0.651055 0.478158 -0.769861 -0.111637 -0.167089 -0.979583 255 255 255
0.651055 0.478158 -0.465711 -0.111637 -0.167089 0.979583 255 255 255
0.634895 0.453973 -0.474535 -0.215491 -0.322489 0.921690 255 255 255
0.606948 0.412147 -0.727426 -0.394513 -0.590442 -0.704062 255 255 255
0.620002 0.431684 -0.746709 -0.310984 -0.465407 -0.828639 255 255 255
0.596235 0.396114 -0.703930 -0.462966 -0.692892 -0.552751 255 255 255
0.560328 0.395776 -0.648036 -0.693655 -0.693686 -0.193915 255 255 255
0.566567 0.402015 -0.677123 -0.653890 -0.653890 -0.380505 255 255 255
0.560328 0.395776 -0.587537 -0.693655 -0.693686 0.193915 255 255 255
0.558221 0.393670 -0.617786 -0.707083 -0.707083 0.000000 255 255 255
0.576699 0.412147 -0.531643 -0.589251 -0.589251 0.552751 255 255 255
0.566567 0.402015 -0.558450 -0.653890 -0.653890 0.380505 255 255 255
0.606948 0.442397 -0.488863 -0.395795 -0.395795 0.828639 255 255 255
0.590334 0.425782 -0.508146 -0.502152 -0.502121 0.704031 255 255 255
0.625904 0.461352 -0.761038 -0.274270 -0.274270 -0.921690 255 255 255
0.646471 0.481920 -0.769861 -0.142094 -0.142094 -0.979583 255 255 255
0.646471 0.481920 -0.465711 -0.142094 -0.142094 0.979583 255 255 255
0.625904 0.461352 -0.474535 -0.274270 -0.274270 0.921690 255 255 255
0.590334 0.425782 -0.727426 -0.502121 -0.502121 -0.704062 255 255 255
0.606948 0.442397 -0.746709 -0.395825 -0.395795 -0.828639 255 255 255
0.576699 0.412147 -0.703930 -0.589251 -0.589251 -0.552751 255 255 255
0.541415 0.418821 -0.648036 -0.815668 -0.545000 -0.193915 255 255 255
0.548752 0.423723 -0.677123 -0.768914 -0.513749 -0.380535 255 255 255
0.541415 0.418821 -0.587537 -0.815668 -0.545000 0.193915 255 255 255
0.538938 0.417166 -0.617786 -0.831446 -0.555559 0.000000 255 255 255
0.560665 0.431684 -0.531643 -0.692892 -0.462966 0.552751 255 255 255
0.548752 0.423723 -0.558450 -0.768914 -0.513749 0.380535 255 255 255
0.596235 0.455451 -0.488863 -0.465407 -0.310984 0.828639 255 255 255
0.576699 0.442397 -0.508146 -0.590442 -0.394513 0.704031 255 255 255
0.618524 0.470344 -0.761038 -0.322489 -0.215491 -0.921690 255 255 255
0.642709 0.486504 -0.769861 -0.167089 -0.111637 -0.979583 255 255 255
0.642709 0.486504 -0.465711 -0.167089 -0.111637 0.979583 255 255 255
0.618524 0.470344 -0.474535 -0.322489 -0.215491 0.921690 255 255 255
0.576699 0.442397 -0.727426 -0.590442 -0.394513 -0.704062 255 255 255
0.596235 0.455451 -0.746709 -0.465438 -0.310984 -0.828639 255 255 255
0.560665 0.431684 -0.703930 -0.692892 -0.462966 -0.552751 255 255 255
0.527362 0.445113 -0.648036 -0.906339 -0.375408 -0.193915 255 255 255
0.535514 0.448490 -0.677123 -0.854366 -0.353862 -0.380535 255 255 255
0.527362 0.445113 -0.587537 -0.906339 -0.375408 0.193915 255 255 255
0.524609 0.443973 -0.617786 -0.923856 -0.382672 0.000000 255 255 255
0.548752 0.453973 -0.531643 -0.769890 -0.318888 0.552751 255 255 255
0.535514 0.448490 -0.558450 -0.854366 -0.353862 0.380535 255 255 255
0.588275 0.470344 -0.488863 -0.517136 -0.214209 0.828639 255 255 255
0.566567 0.461352 -0.508146 -0.656087 -0.271737 0.704031 255 255 255
0.613041 0.480602 -0.761038 -0.358348 -0.148412 -0.921690 255 255 255
0.639914 0.491734 -0.769861 -0.185675 -0.076876 -0.979583 255 255 255
0.639914 0.491734 -0.465711 -0.185644 -0.076907 0.979583 255 255 255
0.613041 0.480602 -0.474535 -0.358348 -0.148412 0.921690 255 255 255
0.566567 0.461352 -0.727426 -0.656056 -0.271737 -0.704062 255 255 255
0.588275 0.470344 -0.746709 -0.517167 -0.214209 -0.828639 255 255 255
0.548752 0.453973 -0.703930 -0.769890 -0.318888 -0.552751 255 255 255
0.518708 0.473641 -0.648036 -0.962157 -0.191382 -0.193915 255 255 255
0.527362 0.475363 -0.677123 -0.906980 -0.180395 -0.380535 255 255 255
0.518708 0.473641 -0.587537 -0.962157 -0.191382 0.193915 255 255 255
0.515786 0.473060 -0.617786 -0.980773 -0.195074 0.000000 255 255 255
0.541415 0.478158 -0.531643 -0.817316 -0.162572 0.552751 255 255 255
0.527362 0.475363 -0.558450 -0.906980 -0.180395 0.380535 255 255 255
0.583373 0.486504 -0.488863 -0.548997 -0.109195 0.828639 255 255 255
0.560328 0.481920 -0.508146 -0.696493 -0.138524 0.704031 255 255 255
0.609664 0.491734 -0.761038 -0.380413 -0.075655 -0.921690 255 255 255
0.638193 0.497408 -0.769861 -0.197089 -0.039186 -0.979583 255 255 255
0.638192 0.497408 -0.465711 -0.197089 -0.039186 0.979583 255 255 255
0.609664 0.491734 -0.474535 -0.380413 -0.075655 0.921690 255 255 255
0.560328 0.481920 -0.727426 -0.696463 -0.138524 -0.704062 255 255 255
0.583373 0.486504 -0.746709 -0.548997 -0.109195 -0.828639 255 255 255
0.541415 0.478158 -0.703930 -0.817316 -0.162572 -0.552751 255 255 255
0.667861 0.503310 -0.772841 0.000000 0.000000 -1.000000 255 255 255
0.667861 0.503310 -0.462732 0.000000 0.000000 1.000000 255 255 255
4 0 1 2 3
4 4 5 6 7
4 8 9 10 11
4 12 13 14 15
4 16 17 18 19
4 20 21 22 23
4 24 25 26 27
4 25 28 29 26
4 30 24 27 31
4 28 30 31 29
4 32 33 34 35
4 36 37 38 39
4 40 41 42 43
4 44 45 46 47
4 48 49 50 51
4 52 53 54 55
4 56 57 58 59
4 60 61 62 63
4 64 65 66 67
4 68 69 70 71
4 72 73 74 75
4 76 77 78 79
4 80 52 55 81
4 53 60 63 54
4 57 64 67 58
4 65 68 71 66
4 69 72 75 70
4 73 76 79 74
4 77 80 81 78
4 70 75 82 83
4 74 79 84 85
4 78 81 86 87
4 55 54 88 89
4 59 58 90 91
4 63 62 92 93
4 67 66 94 95
4 71 70 83 96
4 75 74 85 82
4 79 78 87 84
4 81 55 89 86
4 54 63 93 88
4 58 67 95 90
4 66 71 96 94
4 83 82 97 98
4 85 84 99 100
4 87 86 101 102
4 89 88 103 104
4 91 90 105 106
4 93 92 107 108
4 95 94 109 110
4 96 83 98 111
4 82 85 100 97
4 84 87 102 99
4 86 89 104 101
4 88 93 108 103
4 90 95 110 105
4 94 96 111 109
4 98 97 112 113
4 100 99 114 115
4 102 101 116 117
4 104 103 118 119
4 106 105 120 121
4 108 107 122 123
4 110 109 124 125
4 111 98 113 126
4 97 100 115 112
4 99 102 117 114
4 101 104 119 116
4 103 108 123 118
4 105 110 125 120
4 109 111 126 124
4 113 112 127 128
4 115 114 129 130
4 117 116 131 132
4 119 118 133 134
4 121 120 135 136
4 123 122 137 138
4 125 124 139 140
4 126 113 128 141
4 112 115 130 127
4 114 117 132 129
4 116 119 134 131
4 118 123 138 133
4 120 125 140 135
4 124 126 141 139
4 128 127 142 143
4 130 129 144 145
4 132 131 146 147
4 134 133 148 149
4 136 135 150 151
4 138 137 152 153
4 140 139 154 155
4 141 128 143 156
4 127 130 145 142
4 129 132 147 144
4 131 134 149 146
4 133 138 153 148
4 135 140 155 150
4 139 141 156 154
4 143 142 157 158
4 145 144 159 160
4 147 146 161 162
4 149 148 163 164
4 151 150 165 166
4 153 152 167 168
4 155 154 169 170
4 156 143 158 171
4 142 145 160 157
4 144 147 162 159
4 146 149 164 161
4 148 153 168 163
4 150 155 170 165
4 154 156 171 169
4 158 157 172 173
4 160 159 174 175
4 162 161 176 177
4 164 163 178 179
4 166 165 180 181
4 168 167 182 183
4 170 169 184 185
4 171 158 173 186
4 157 160 175 172
4 159 162 177 174
4 161 164 179 176
4 163 168 183 178
4 165 170 185 180
4 169 171 186 184
4 173 172 187 188
4 175 174 189 190
4 177 176 191 192
4 179 178 193 194
4 181 180 195 196
4 183 182 197 198
4 185 184 199 200
4 186 173 188 201
4 172 175 190 187
4 174 177 192 189
4 176 179 194 191
4 178 183 198 193
4 180 185 200 195
4 184 186 201 199
4 188 187 202 203
4 190 189 204 205
4 192 191 206 207
4 194 193 208 209
4 196 195 210 211
4 198 197 212 213
4 200 199 214 215
4 201 188 203 216
4 187 190 205 202
4 189 192 207 204
4 191 194 209 206
4 193 198 213 208
4 195 200 215 210
4 199 201 216 214
4 203 202 217 218
4 205 204 219 220
4 207 206 221 222
4 209 208 223 224
4 211 210 225 226
4 213 212 227 228
4 215 214 229 230
4 216 203 218 231
4 202 205 220 217
4 204 207 222 219
4 206 209 224 221
4 208 213 228 223
4 210 215 230 225
4 214 216 231 229
4 218 217 232 233
4 220 219 234 235
4 222 221 236 237
4 224 223 238 239
4 226 225 240 241
4 228 227 242 243
4 230 229 244 245
4 231 218 233 246
4 217 220 235 232
4 219 222 237 234
4 221 224 239 236
4 223 228 243 238
4 225 230 245 240
4 229 231 246 244
4 233 232 247 248
4 235 234 249 250
4 237 236 251 252
4 239 238 253 254
4 241 240 255 256
4 243 242 257 258
4 245 244 259 260
4 246 233 248 261
4 232 235 250 247
4 234 237 252 249
4 236 239 254 251
4 238 243 258 253
4 240 245 260 255
4 244 246 261 259
4 248 247 262 263
4 250 249 264 265
4 252 251 266 267
4 254 253 268 269
4 256 255 270 271
4 258 257 272 273
4 260 259 274 275
4 261 248 263 276
4 247 250 265 262
4 249 252 267 264
4 251 254 269 266
4 253 258 273 268
4 255 260 275 270
4 259 261 276 274
4 263 262 277 278
4 265 264 279 280
4 267 266 281 282
4 269 268 283 284
4 271 270 285 286
4 273 272 287 288
4 275 274 289 290
4 276 263 278 291
4 262 265 280 277
4 264 267 282 279
4 266 269 284 281
4 268 273 288 283
4 270 275 290 285
4 274 276 291 289
4 278 277 292 293
4 280 279 294 295
4 282 281 296 297
4 284 283 298 299
4 286 285 300 301
4 288 287 302 303
4 290 289 304 305
4 291 278 293 306
4 277 280 295 292
4 279 282 297 294
4 281 284 299 296
4 283 288 303 298
4 285 290 305 300
4 289 291 306 304
4 293 292 307 308
4 295 294 309 310
4 297 296 311 312
4 299 298 313 314
4 301 300 315 316
4 303 302 317 318
4 305 304 319 320
4 306 293 308 321
4 292 295 310 307
4 294 297 312 309
4 296 299 314 311
4 298 303 318 313
4 300 305 320 315
4 304 306 321 319
4 308 307 322 323
4 310 309 324 325
4 312 311 326 327
4 314 313 328 329
4 316 315 330 331
4 318 317 332 333
4 320 319 334 335
4 321 308 323 336
4 307 310 325 322
4 309 312 327 324
4 311 314 329 326
4 313 318 333 328
4 315 320 335 330
4 319 321 336 334
4 323 322 337 338
4 325 324 339 340
4 327 326 341 342
4 329 328 343 344
4 331 330 345 346
4 333 332 347 348
4 335 334 349 350
4 336 323 338 351
4 322 325 340 337
4 324 327 342 339
4 326 329 344 341
4 328 333 348 343
4 330 335 350 345
4 334 336 351 349
4 338 337 352 353
4 340 339 354 355
4 342 341 356 357
4 344 343 358 359
4 346 345 360 361
4 348 347 362 363
4 350 349 364 365
4 351 338 353 366
4 337 340 355 352
4 339 342 357 354
4 341 344 359 356
4 343 348 363 358
4 345 350 365 360
4 349 351 366 364
4 353 352 367 368
4 355 354 369 370
4 357 356 371 372
4 359 358 373 374
4 361 360 375 376
4 363 362 377 378
4 365 364 379 380
4 366 353 368 381
4 352 355 370 367
4 354 357 372 369
4 356 359 374 371
4 358 363 378 373
4 360 365 380 375
4 364 366 381 379
4 368 367 382 383
4 370 369 384 385
4 372 371 386 387
4 374 373 388 389
4 376 375 390 391
4 378 377 392 393
4 380 379 394 395
4 381 368 383 396
4 367 370 385 382
4 369 372 387 384
4 371 374 389 386
4 373 378 393 388
4 375 380 395 390
4 379 381 396 394
4 383 382 397 398
4 385 384 399 400
4 387 386 401 402
4 389 388 403 404
4 391 390 405 406
4 393 392 407 408
4 395 394 409 410
4 396 383 398 411
4 382 385 400 397
4 384 387 402 399
4 386 389 404 401
4 388 393 408 403
4 390 395 410 405
4 394 396 411 409
4 398 397 412 413
4 400 399 414 415
4 402 401 416 417
4 404 403 418 419
4 406 405 420 421
4 408 407 422 423
4 410 409 424 425
4 411 398 413 426
4 397 400 415 412
4 399 402 417 414
4 401 404 419 416
4 403 408 423 418
4 405 410 425 420
4 409 411 426 424
4 413 412 427 428
4 415 414 429 430
4 417 416 431 432
4 419 418 433 434
4 421 420 435 436
4 423 422 437 438
4 425 424 439 440
4 426 413 428 441
4 412 415 430 427
4 414 417 432 429
4 416 419 434 431
4 418 423 438 433
4 420 425 440 435
4 424 426 441 439
4 428 427 442 443
4 430 429 444 445
4 432 431 446 447
4 434 433 448 449
4 436 435 450 451
4 438 437 452 453
4 440 439 454 455
4 441 428 443 456
4 427 430 445 442
4 429 432 447 444
4 431 434 449 446
4 433 438 453 448
4 435 440 455 450
4 439 441 456 454
4 443 442 457 458
4 445 444 459 460
4 447 446 461 462
4 449 448 463 464
4 451 450 465 466
4 453 452 467 468
4 455 454 469 470
4 456 443 458 471
4 442 445 460 457
4 444 447 462 459
4 446 449 464 461
4 448 453 468 463
4 450 455 470 465
4 454 456 471 469
4 458 457 472 473
4 460 459 474 475
4 462 461 476 477
4 464 463 478 479
4 466 465 480 481
4 468 467 482 483
4 470 469 484 485
4 471 458 473 486
4 457 460 475 472
4 459 462 477 474
4 461 464 479 476
4 463 468 483 478
4 465 470 485 480
4 469 471 486 484
4 473 472 487 488
4 475 474 489 490
4 477 476 491 492
4 479 478 493 494
4 481 480 495 496
4 483 482 497 498
4 485 484 499 500
4 486 473 488 501
4 472 475 490 487
4 474 477 492 489
4 476 479 494 491
4 478 483 498 493
4 480 485 500 495
4 484 486 501 499
4 488 487 502 503
4 490 489 504 505
4 492 491 506 507
4 494 493 508 509
4 496 495 510 511
4 498 497 512 513
4 500 499 514 515
4 501 488 503 516
4 487 490 505 502
4 489 492 507 504
4 491 494 509 506
4 493 498 513 508
4 495 500 515 510
4 499 501 516 514
4 503 502 517 518
4 505 504 519 520
4 507 506 521 522
4 509 508 523 524
4 511 510 525 526
4 513 512 527 528
4 515 514 529 530
4 516 503 518 531
4 502 505 520 517
4 504 507 522 519
4 506 509 524 521
4 508 513 528 523
4 510 515 530 525
4 514 516 531 529
3 532 56 59
3 61 533 62
3 532 59 91
3 62 533 92
3 532 91 106
3 92 533 107
3 532 106 121
3 107 533 122
3 532 121 136
3 122 533 137
3 532 136 151
3 137 533 152
3 532 151 166
3 152 533 167
3 532 166 181
3 167 533 182
3 532 181 196
3 182 533 197
3 532 196 211
3 197 533 212
3 532 211 226
3 212 533 227
3 532 226 241
3 227 533 242
3 532 241 256
3 242 533 257
3 532 256 271
3 257 533 272
3 532 271 286
3 272 533 287
3 532 286 301
3 287 533 302
3 532 301 316
3 302 533 317
3 532 316 331
3 317 533 332
3 532 331 346
3 332 533 347
3 532 346 361
3 347 533 362
3 532 361 376
3 362 533 377
3 532 376 391
3 377 533 392
3 532 391 406
3 392 533 407
3 532 406 421
3 407 533 422
3 532 421 436
3 422 533 437
3 532 436 451
3 437 533 452
3 532 451 466
3 452 533 467
3 532 466 481
3 467 533 482
3 532 481 496
3 482 533 497
3 532 496 511
3 497 533 512
3 532 511 526
3 512 533 527
4 518 517 72 69
4 520 519 76 73
4 522 521 80 77
4 524 523 53 52
4 526 525 57 56
4 528 527 61 60
4 530 529 65 64
4 531 518 69 68
4 517 520 73 72
4 519 522 77 76
4 521 524 52 80
3 532 526 56
4 523 528 60 53
4 525 530 64 57
3 527 533 61
4 529 531 68 65
4 25 24 30 28
